<svg viewBox="0 0 1000 700" xmlns="http://www.w3.org/2000/svg">
  <defs>
    <marker id="arrowhead" markerWidth="10" markerHeight="7" refX="0" refY="3.5" orient="auto">
      <polygon points="0 0, 10 3.5, 0 7" fill="#333" />
    </marker>
  </defs>
  
  <!-- Title -->
  <text x="500" y="40" font-family="Arial" font-size="24" text-anchor="middle" font-weight="bold">PDF Chat with Amazon Bedrock - Architecture</text>
  
  <!-- Admin Flow -->
  <rect x="50" y="80" width="900" height="250" fill="#f0f8ff" rx="10" ry="10" stroke="#ccc" stroke-width="2" />
  <text x="500" y="110" font-family="Arial" font-size="20" text-anchor="middle" fill="#d9534f" font-weight="bold">ADMIN PROCESSING</text>

  <!-- User Flow -->
  <rect x="50" y="360" width="900" height="320" fill="#f5f5f5" rx="10" ry="10" stroke="#ccc" stroke-width="2" />
  <text x="500" y="390" font-family="Arial" font-size="20" text-anchor="middle" fill="#428bca" font-weight="bold">USER QUERYING</text>
  
  <!-- Admin Components -->
  <circle cx="130" cy="170" r="30" fill="#5bc0de" />
  <text x="130" y="170" font-family="Arial" font-size="14" text-anchor="middle" fill="white">Admin</text>
  
  <rect x="220" y="140" width="80" height="60" fill="#f9f9f9" stroke="#666" stroke-width="2" rx="5" ry="5" />
  <text x="260" y="175" font-family="Arial" font-size="14" text-anchor="middle">PDF Files</text>
  
  <rect x="360" y="140" width="80" height="60" fill="#f9f9f9" stroke="#666" stroke-width="2" rx="5" ry="5" />
  <text x="400" y="175" font-family="Arial" font-size="14" text-anchor="middle">Chunks</text>
  
  <rect x="500" y="140" width="100" height="60" fill="#5cb85c" stroke="#3e8e3e" stroke-width="2" rx="5" ry="5" />
  <text x="550" y="175" font-family="Arial" font-size="14" text-anchor="middle" fill="white">Titan</text>
  <text x="550" y="195" font-family="Arial" font-size="14" text-anchor="middle" fill="white">Embeddings</text>
  
  <rect x="660" y="140" width="120" height="60" fill="#f0ad4e" stroke="#d89310" stroke-width="2" rx="5" ry="5" />
  <text x="720" y="175" font-family="Arial" font-size="14" text-anchor="middle" fill="white">FAISS Index</text>
  
  <rect x="840" y="140" width="80" height="60" fill="#d9534f" stroke="#c9302c" stroke-width="2" rx="5" ry="5" />
  <text x="880" y="175" font-family="Arial" font-size="14" text-anchor="middle" fill="white">S3 Bucket</text>
  
  <!-- Admin Flow Arrows -->
  <line x1="160" y1="170" x2="210" y2="170" stroke="#333" stroke-width="2" marker-end="url(#arrowhead)" />
  <text x="185" y="160" font-family="Arial" font-size="12" text-anchor="middle">Upload</text>
  
  <line x1="300" y1="170" x2="350" y2="170" stroke="#333" stroke-width="2" marker-end="url(#arrowhead)" />
  <text x="325" y="160" font-family="Arial" font-size="12" text-anchor="middle">Split</text>
  
  <line x1="440" y1="170" x2="490" y2="170" stroke="#333" stroke-width="2" marker-end="url(#arrowhead)" />
  <text x="465" y="160" font-family="Arial" font-size="12" text-anchor="middle">Vectorize</text>
  
  <line x1="600" y1="170" x2="650" y2="170" stroke="#333" stroke-width="2" marker-end="url(#arrowhead)" />
  <text x="625" y="160" font-family="Arial" font-size="12" text-anchor="middle">Index</text>
  
  <line x1="780" y1="170" x2="830" y2="170" stroke="#333" stroke-width="2" marker-end="url(#arrowhead)" />
  <text x="805" y="160" font-family="Arial" font-size="12" text-anchor="middle">Store</text>
  
  <!-- User Components -->
  <circle cx="130" cy="470" r="30" fill="#428bca" />
  <text x="130" y="470" font-family="Arial" font-size="14" text-anchor="middle" fill="white">User</text>
  
  <rect x="220" y="440" width="100" height="60" fill="#f9f9f9" stroke="#666" stroke-width="2" rx="5" ry="5" />
  <text x="270" y="475" font-family="Arial" font-size="14" text-anchor="middle">Query</text>
  
  <rect x="380" y="440" width="100" height="60" fill="#5cb85c" stroke="#3e8e3e" stroke-width="2" rx="5" ry="5" />
  <text x="430" y="475" font-family="Arial" font-size="14" text-anchor="middle" fill="white">Titan</text>
  <text x="430" y="495" font-family="Arial" font-size="14" text-anchor="middle" fill="white">Embeddings</text>
  
  <rect x="540" y="440" width="100" height="60" fill="#f9f9f9" stroke="#666" stroke-width="2" rx="5" ry="5" />
  <text x="590" y="475" font-family="Arial" font-size="14" text-anchor="middle">Similarity</text>
  <text x="590" y="495" font-family="Arial" font-size="14" text-anchor="middle">Search</text>
  
  <rect x="540" y="560" width="100" height="60" fill="#f9f9f9" stroke="#666" stroke-width="2" rx="5" ry="5" />
  <text x="590" y="595" font-family="Arial" font-size="14" text-anchor="middle">Create</text>
  <text x="590" y="615" font-family="Arial" font-size="14" text-anchor="middle">Prompt</text>
  
  <rect x="700" y="560" width="100" height="60" fill="#9370db" stroke="#7b52c7" stroke-width="2" rx="5" ry="5" />
  <text x="750" y="595" font-family="Arial" font-size="14" text-anchor="middle" fill="white">LLama 3</text>
  <text x="750" y="615" font-family="Arial" font-size="14" text-anchor="middle" fill="white">Response</text>
  
  <rect x="840" y="440" width="80" height="60" fill="#d9534f" stroke="#c9302c" stroke-width="2" rx="5" ry="5" />
  <text x="880" y="475" font-family="Arial" font-size="14" text-anchor="middle" fill="white">S3 Bucket</text>

  <!-- User Flow Arrows -->
  <line x1="160" y1="470" x2="210" y2="470" stroke="#333" stroke-width="2" marker-end="url(#arrowhead)" />
  <text x="185" y="460" font-family="Arial" font-size="12" text-anchor="middle">Ask</text>
  
  <line x1="320" y1="470" x2="370" y2="470" stroke="#333" stroke-width="2" marker-end="url(#arrowhead)" />
  <text x="345" y="460" font-family="Arial" font-size="12" text-anchor="middle">Convert</text>
  
  <line x1="480" y1="470" x2="530" y2="470" stroke="#333" stroke-width="2" marker-end="url(#arrowhead)" />
  <text x="505" y="460" font-family="Arial" font-size="12" text-anchor="middle">Search</text>
  
  <line x1="640" y1="470" x2="830" y2="470" stroke="#333" stroke-width="2" stroke-dasharray="5,5" marker-end="url(#arrowhead)" />
  <text x="730" y="460" font-family="Arial" font-size="12" text-anchor="middle">Retrieve Vectors</text>
  
  <line x1="590" y1="500" x2="590" y2="550" stroke="#333" stroke-width="2" marker-end="url(#arrowhead)" />
  <text x="620" y="525" font-family="Arial" font-size="12" text-anchor="middle">Context</text>
  
  <line x1="640" y1="590" x2="690" y2="590" stroke="#333" stroke-width="2" marker-end="url(#arrowhead)" />
  <text x="665" y="580" font-family="Arial" font-size="12" text-anchor="middle">Generate</text>
  
  <line x1="750" y1="550" x2="750" y2="500" stroke="#333" stroke-width="2" marker-end="url(#arrowhead)" stroke-dasharray="5,5" />
  <text x="780" y="525" font-family="Arial" font-size="12" text-anchor="middle">Response</text>

  <!-- Connection between S3 and both apps -->
  <path d="M880 200 L880 240 L880 440" stroke="#333" stroke-width="2" stroke-dasharray="5,5" fill="none" />
</svg>